JetBrainsMono-ThinItalic.ufo
<glyph name="seven" format="2">
  <advance width="600"/>
  <unicode hex="0037"/>
  <outline>
    <contour>
      <point x="172" y="0" type="line"/>
      <point x="231" y="0" type="line"/>
      <point x="598" y="675" type="line"/>
      <point x="607" y="730" type="line"/>
      <point x="162" y="730" type="line"/>
      <point x="130" y="530" type="line"/>
      <point x="185" y="530" type="line"/>
      <point x="209" y="679" type="line"/>
      <point x="546" y="679" type="line"/>
    </contour>
  </outline>
</glyph>
<glyph name="less" format="2">
  <advance width="600"/>
  <unicode hex="003C"/>
  <outline>
    <contour>
      <point x="479" y="80" type="line"/>
      <point x="487" y="131" type="line"/>
      <point x="221" y="287" type="line" smooth="yes"/>
      <point x="195" y="302"/>
      <point x="163" y="320"/>
      <point x="145" y="329" type="curve"/>
      <point x="166" y="338"/>
      <point x="204" y="356"/>
      <point x="234" y="371" type="curve" smooth="yes"/>
      <point x="549" y="525" type="line"/>
      <point x="558" y="580" type="line"/>
      <point x="102" y="353" type="line"/>
      <point x="95" y="307" type="line"/>
    </contour>
  </outline>
</glyph>
<glyph name="I" format="2">
  <advance width="600"/>
  <unicode hex="0049"/>
  <anchor x="256" y="0" name="bottom"/>
  <anchor x="280" y="0" name="ogonek"/>
  <anchor x="372" y="730" name="top"/>
  <anchor x="92" y="730" name="topleft"/>
  <outline>
    <contour>
      <point x="76" y="0" type="line"/>
      <point x="436" y="0" type="line"/>
      <point x="443" y="46" type="line"/>
      <point x="289" y="46" type="line"/>
      <point x="390" y="684" type="line"/>
      <point x="544" y="684" type="line"/>
      <point x="552" y="730" type="line"/>
      <point x="192" y="730" type="line"/>
      <point x="184" y="684" type="line"/>
      <point x="340" y="684" type="line"/>
      <point x="239" y="46" type="line"/>
      <point x="83" y="46" type="line"/>
    </contour>
  </outline>
</glyph>
<glyph name="Q" format="2">
  <advance width="600"/>
  <unicode hex="0051"/>
  <anchor x="256" y="0" name="bottom"/>
  <anchor x="372" y="730" name="top"/>
  <outline>
    <contour>
      <point x="382" y="-180" type="line"/>
      <point x="433" y="-180" type="line"/>
      <point x="340" y="31" type="line"/>
      <point x="339" y="5" type="line"/>
      <point x="415" y="31"/>
      <point x="467" y="101"/>
      <point x="481" y="190" type="curve" smooth="yes"/>
      <point x="537" y="540" type="line" smooth="yes"/>
      <point x="556" y="656"/>
      <point x="493" y="740"/>
      <point x="374" y="740" type="curve" smooth="yes"/>
      <point x="254" y="740"/>
      <point x="167" y="662"/>
      <point x="147" y="540" type="curve" smooth="yes"/>
      <point x="91" y="190" type="line" smooth="yes"/>
      <point x="72" y="69"/>
      <point x="136" y="-10"/>
      <point x="255" y="-10" type="curve" smooth="yes"/>
      <point x="275" y="-10"/>
      <point x="298" y="-7"/>
      <point x="309" y="-5" type="curve"/>
      <point x="301" y="0" type="line"/>
    </contour>
    <contour>
      <point x="263" y="35" type="curve" smooth="yes"/>
      <point x="171" y="35"/>
      <point x="125" y="92"/>
      <point x="141" y="190" type="curve" smooth="yes"/>
      <point x="197" y="540" type="line" smooth="yes"/>
      <point x="213" y="638"/>
      <point x="275" y="695"/>
      <point x="367" y="695" type="curve" smooth="yes"/>
      <point x="457" y="695"/>
      <point x="503" y="637"/>
      <point x="487" y="540" type="curve" smooth="yes"/>
      <point x="431" y="190" type="line" smooth="yes"/>
      <point x="415" y="92"/>
      <point x="354" y="35"/>
    </contour>
  </outline>
</glyph>
<glyph name="W" format="2">
  <advance width="600"/>
  <unicode hex="0057"/>
  <anchor x="256" y="0" name="bottom"/>
  <anchor x="372" y="730" name="top"/>
  <outline>
    <contour>
      <point x="86" y="0" type="line"/>
      <point x="156" y="0" type="line"/>
      <point x="320" y="530" type="line" smooth="yes"/>
      <point x="336" y="582"/>
      <point x="356" y="652"/>
      <point x="368" y="690" type="curve"/>
      <point x="367" y="651"/>
      <point x="365" y="581"/>
      <point x="364" y="530" type="curve" smooth="yes"/>
      <point x="353" y="0" type="line"/>
      <point x="425" y="0" type="line"/>
      <point x="632" y="730" type="line"/>
      <point x="583" y="730" type="line"/>
      <point x="435" y="190" type="line" smooth="yes"/>
      <point x="425" y="154"/>
      <point x="403" y="80"/>
      <point x="390" y="35" type="curve"/>
      <point x="391" y="80"/>
      <point x="392" y="154"/>
      <point x="393" y="190" type="curve" smooth="yes"/>
      <point x="405" y="730" type="line"/>
      <point x="341" y="730" type="line"/>
      <point x="178" y="190" type="line" smooth="yes"/>
      <point x="167" y="154"/>
      <point x="145" y="80"/>
      <point x="132" y="35" type="curve"/>
      <point x="134" y="80"/>
      <point x="137" y="154"/>
      <point x="138" y="190" type="curve" smooth="yes"/>
      <point x="156" y="730" type="line"/>
      <point x="112" y="730" type="line"/>
    </contour>
  </outline>
</glyph>
<glyph name="Y" format="2">
  <advance width="600"/>
  <unicode hex="0059"/>
  <anchor x="256" y="0" name="bottom"/>
  <anchor x="372" y="730" name="top"/>
  <anchor x="92" y="730" name="topleft"/>
  <outline>
    <contour>
      <point x="231" y="0" type="line"/>
      <point x="281" y="0" type="line"/>
      <point x="325" y="280" type="line"/>
      <point x="622" y="730" type="line"/>
      <point x="568" y="730" type="line"/>
      <point x="351" y="400" type="line" smooth="yes"/>
      <point x="331" y="370"/>
      <point x="315" y="342"/>
      <point x="307" y="330" type="curve"/>
      <point x="303" y="343"/>
      <point x="294" y="371"/>
      <point x="284" y="400" type="curve" smooth="yes"/>
      <point x="172" y="730" type="line"/>
      <point x="122" y="730" type="line"/>
      <point x="275" y="280" type="line"/>
    </contour>
  </outline>
</glyph>
<glyph name="backslash" format="2">
  <advance width="600"/>
  <unicode hex="005C"/>
  <outline>
    <contour>
      <point x="392" y="-110" type="line"/>
      <point x="444" y="-110" type="line"/>
      <point x="234" y="830" type="line"/>
      <point x="182" y="830" type="line"/>
    </contour>
  </outline>
</glyph>
<glyph name="a" format="2">
  <advance width="600"/>
  <unicode hex="0061"/>
  <anchor x="261" y="0" name="bottom"/>
  <anchor x="410" y="0" name="ogonek"/>
  <anchor x="348" y="550" name="top"/>
  <outline>
    <contour>
      <point x="241" y="-10" type="curve" smooth="yes"/>
      <point x="337" y="-10"/>
      <point x="414" y="49"/>
      <point x="428" y="140" type="curve"/>
      <point x="380" y="75" type="line"/>
      <point x="408" y="75" type="line"/>
      <point x="396" y="0" type="line"/>
      <point x="446" y="0" type="line"/>
      <point x="533" y="550" type="line"/>
      <point x="483" y="550" type="line"/>
      <point x="471" y="475" type="line"/>
      <point x="453" y="475" type="line"/>
      <point x="471" y="410" type="line"/>
      <point x="485" y="501"/>
      <point x="428" y="560"/>
      <point x="332" y="560" type="curve" smooth="yes"/>
      <point x="222" y="560"/>
      <point x="137" y="480"/>
      <point x="118" y="360" type="curve" smooth="yes"/>
      <point x="91" y="189" type="line" smooth="yes"/>
      <point x="72" y="69"/>
      <point x="131" y="-10"/>
    </contour>
    <contour>
      <point x="258" y="33" type="curve" smooth="yes"/>
      <point x="169" y="33"/>
      <point x="126" y="91"/>
      <point x="141" y="189" type="curve" smooth="yes"/>
      <point x="168" y="360" type="line" smooth="yes"/>
      <point x="183" y="458"/>
      <point x="246" y="517"/>
      <point x="335" y="517" type="curve" smooth="yes"/>
      <point x="426" y="517"/>
      <point x="468" y="458"/>
      <point x="453" y="360" type="curve" smooth="yes"/>
      <point x="426" y="189" type="line" smooth="yes"/>
      <point x="411" y="91"/>
      <point x="348" y="33"/>
    </contour>
  </outline>
</glyph>
<glyph name="s" format="2">
  <advance width="600"/>
  <unicode hex="0073"/>
  <anchor x="261" y="0" name="bottom"/>
  <anchor x="347" y="550" name="top"/>
  <outline>
    <contour>
      <point x="226" y="-10" type="curve" smooth="yes"/>
      <point x="293" y="-10" type="line" smooth="yes"/>
      <point x="397" y="-10"/>
      <point x="472" y="48"/>
      <point x="487" y="140" type="curve" smooth="yes"/>
      <point x="500" y="224"/>
      <point x="456" y="285"/>
      <point x="372" y="297" type="curve" smooth="yes"/>
      <point x="270" y="312" type="line" smooth="yes"/>
      <point x="201" y="322"/>
      <point x="172" y="355"/>
      <point x="180" y="412" type="curve" smooth="yes"/>
      <point x="189" y="475"/>
      <point x="245" y="515"/>
      <point x="320" y="515" type="curve" smooth="yes"/>
      <point x="362" y="515" type="line" smooth="yes"/>
      <point x="432" y="515"/>
      <point x="475" y="477"/>
      <point x="474" y="425" type="curve"/>
      <point x="524" y="425" type="line"/>
      <point x="527" y="506"/>
      <point x="469" y="560"/>
      <point x="369" y="560" type="curve" smooth="yes"/>
      <point x="327" y="560" type="line" smooth="yes"/>
      <point x="221" y="560"/>
      <point x="144" y="502"/>
      <point x="129" y="411" type="curve" smooth="yes"/>
      <point x="116" y="330"/>
      <point x="163" y="278"/>
      <point x="254" y="265" type="curve" smooth="yes"/>
      <point x="358" y="250" type="line" smooth="yes"/>
      <point x="415" y="242"/>
      <point x="445" y="197"/>
      <point x="436" y="140" type="curve" smooth="yes"/>
      <point x="426" y="76"/>
      <point x="374" y="35"/>
      <point x="301" y="35" type="curve" smooth="yes"/>
      <point x="234" y="35" type="line" smooth="yes"/>
      <point x="165" y="35"/>
      <point x="121" y="77"/>
      <point x="120" y="135" type="curve"/>
      <point x="70" y="135" type="line"/>
      <point x="66" y="50"/>
      <point x="126" y="-10"/>
    </contour>
  </outline>
</glyph>
<glyph name="w" format="2">
  <advance width="600"/>
  <unicode hex="0077"/>
  <anchor x="256" y="0" name="bottom"/>
  <anchor x="343" y="550" name="top"/>
  <outline>
    <contour>
      <point x="99" y="0" type="line"/>
      <point x="165" y="0" type="line"/>
      <point x="299" y="391" type="line" smooth="yes"/>
      <point x="311" y="427"/>
      <point x="328" y="478"/>
      <point x="337" y="507" type="curve"/>
      <point x="338" y="478"/>
      <point x="338" y="427"/>
      <point x="339" y="391" type="curve" smooth="yes"/>
      <point x="346" y="0" type="line"/>
      <point x="412" y="0" type="line"/>
      <point x="593" y="550" type="line"/>
      <point x="545" y="550" type="line"/>
      <point x="412" y="141" type="line" smooth="yes"/>
      <point x="402" y="111"/>
      <point x="390" y="63"/>
      <point x="383" y="35" type="curve"/>
      <point x="384" y="63"/>
      <point x="384" y="111"/>
      <point x="383" y="140" type="curve" smooth="yes"/>
      <point x="368" y="550" type="line"/>
      <point x="317" y="550" type="line"/>
      <point x="172" y="140" type="line" smooth="yes"/>
      <point x="162" y="111"/>
      <point x="147" y="63"/>
      <point x="140" y="35" type="curve"/>
      <point x="141" y="63"/>
      <point x="142" y="111"/>
      <point x="142" y="141" type="curve" smooth="yes"/>
      <point x="139" y="550" type="line"/>
      <point x="93" y="550" type="line"/>
    </contour>
  </outline>
</glyph>
<glyph name="y" format="2">
  <advance width="600"/>
  <unicode hex="0079"/>
  <anchor x="256" y="0" name="bottom"/>
  <anchor x="343" y="550" name="top"/>
  <outline>
    <contour>
      <point x="94" y="-180" type="line"/>
      <point x="239" y="-180" type="line" smooth="yes"/>
      <point x="351" y="-180"/>
      <point x="419" y="-124"/>
      <point x="437" y="-15" type="curve" smooth="yes"/>
      <point x="526" y="550" type="line"/>
      <point x="476" y="550" type="line"/>
      <point x="427" y="240" type="line" smooth="yes"/>
      <point x="412" y="143"/>
      <point x="347" y="83"/>
      <point x="259" y="83" type="curve" smooth="yes"/>
      <point x="173" y="83"/>
      <point x="129" y="141"/>
      <point x="145" y="240" type="curve" smooth="yes"/>
      <point x="194" y="550" type="line"/>
      <point x="144" y="550" type="line"/>
      <point x="94" y="233" type="line" smooth="yes"/>
      <point x="75" y="115"/>
      <point x="134" y="40"/>
      <point x="242" y="40" type="curve" smooth="yes"/>
      <point x="340" y="40"/>
      <point x="412" y="101"/>
      <point x="427" y="196" type="curve"/>
      <point x="389" y="145" type="line"/>
      <point x="412" y="145" type="line"/>
      <point x="397" y="50" type="line"/>
      <point x="387" y="-15" type="line" smooth="yes"/>
      <point x="374" y="-94"/>
      <point x="326" y="-135"/>
      <point x="247" y="-135" type="curve" smooth="yes"/>
      <point x="102" y="-135" type="line"/>
    </contour>
  </outline>
</glyph>
<glyph name="registered" format="2">
  <advance width="600"/>
  <unicode hex="00AE"/>
  <outline>
    <contour>
      <point x="273" y="110" type="curve" smooth="yes"/>
      <point x="422" y="110"/>
      <point x="536" y="205"/>
      <point x="559" y="350" type="curve" smooth="yes"/>
      <point x="583" y="500" type="line" smooth="yes"/>
      <point x="606" y="645"/>
      <point x="522" y="740"/>
      <point x="373" y="740" type="curve" smooth="yes"/>
      <point x="224" y="740"/>
      <point x="110" y="645"/>
      <point x="87" y="500" type="curve" smooth="yes"/>
      <point x="63" y="350" type="line" smooth="yes"/>
      <point x="40" y="205"/>
      <point x="124" y="110"/>
    </contour>
    <contour>
      <point x="279" y="148" type="curve" smooth="yes"/>
      <point x="157" y="148"/>
      <point x="87" y="229"/>
      <point x="106" y="350" type="curve"/>
      <point x="130" y="500" type="line" smooth="yes"/>
      <point x="149" y="621"/>
      <point x="245" y="702"/>
      <point x="367" y="702" type="curve" smooth="yes"/>
      <point x="489" y="702"/>
      <point x="559" y="621"/>
      <point x="540" y="500" type="curve" smooth="yes"/>
      <point x="516" y="350" type="line" smooth="yes"/>
      <point x="497" y="229"/>
      <point x="401" y="148"/>
    </contour>
    <contour>
      <point x="196" y="250" type="line"/>
      <point x="241" y="250" type="line"/>
      <point x="264" y="395" type="line"/>
      <point x="323" y="395" type="line"/>
      <point x="364" y="250" type="line"/>
      <point x="411" y="250" type="line"/>
      <point x="359" y="424" type="line"/>
      <point x="352" y="398" type="line"/>
      <point x="402" y="408"/>
      <point x="438" y="447"/>
      <point x="447" y="498" type="curve" smooth="yes"/>
      <point x="457" y="560"/>
      <point x="420" y="600"/>
      <point x="356" y="600" type="curve" smooth="yes"/>
      <point x="251" y="600" type="line"/>
    </contour>
    <contour>
      <point x="270" y="435" type="line"/>
      <point x="290" y="560" type="line"/>
      <point x="350" y="560" type="line" smooth="yes"/>
      <point x="390" y="560"/>
      <point x="413" y="534"/>
      <point x="407" y="497" type="curve" smooth="yes"/>
      <point x="401" y="460"/>
      <point x="370" y="435"/>
      <point x="330" y="435" type="curve" smooth="yes"/>
    </contour>
  </outline>
</glyph>
<glyph name="germandbls" format="2">
  <advance width="600"/>
  <unicode hex="00DF"/>
  <outline>
    <contour>
      <point x="-132" y="-180" type="line"/>
      <point x="-43" y="-180" type="line" smooth="yes"/>
      <point x="38" y="-180"/>
      <point x="95" y="-133"/>
      <point x="107" y="-55" type="curve" smooth="yes"/>
      <point x="202" y="543" type="line" smooth="yes"/>
      <point x="217" y="635"/>
      <point x="283" y="695"/>
      <point x="371" y="695" type="curve" smooth="yes"/>
      <point x="463" y="695"/>
      <point x="507" y="637"/>
      <point x="492" y="545" type="curve" smooth="yes"/>
      <point x="478" y="457"/>
      <point x="413" y="397"/>
      <point x="324" y="397" type="curve" smooth="yes"/>
      <point x="284" y="397" type="line"/>
      <point x="277" y="352" type="line"/>
      <point x="317" y="352" type="line" smooth="yes"/>
      <point x="422" y="352"/>
      <point x="468" y="297"/>
      <point x="453" y="200" type="curve" smooth="yes"/>
      <point x="437" y="102"/>
      <point x="373" y="45"/>
      <point x="268" y="45" type="curve" smooth="yes"/>
      <point x="206" y="45" type="line"/>
      <point x="199" y="0" type="line"/>
      <point x="261" y="0" type="line" smooth="yes"/>
      <point x="393" y="0"/>
      <point x="484" y="80"/>
      <point x="504" y="208" type="curve" smooth="yes"/>
      <point x="521" y="314"/>
      <point x="464" y="380"/>
      <point x="356" y="380" type="curve"/>
      <point x="355" y="370" type="line"/>
      <point x="449" y="370"/>
      <point x="526" y="444"/>
      <point x="543" y="550" type="curve" smooth="yes"/>
      <point x="561" y="666"/>
      <point x="500" y="740"/>
      <point x="378" y="740" type="curve" smooth="yes"/>
      <point x="261" y="740"/>
      <point x="171" y="661"/>
      <point x="152" y="543" type="curve" smooth="yes"/>
      <point x="57" y="-55" type="line" smooth="yes"/>
      <point x="49" y="-106"/>
      <point x="16" y="-135"/>
      <point x="-35" y="-135" type="curve" smooth="yes"/>
      <point x="-124" y="-135" type="line"/>
    </contour>
  </outline>
</glyph>
<glyph name="eth" format="2">
  <advance width="600"/>
  <unicode hex="00F0"/>
  <outline>
    <contour>
      <point x="254" y="-10" type="curve" smooth="yes"/>
      <point x="388" y="-10"/>
      <point x="488" y="78"/>
      <point x="510" y="213" type="curve" smooth="yes"/>
      <point x="524" y="302"/>
      <point x="499" y="403"/>
      <point x="433" y="517" type="curve" smooth="yes"/>
      <point x="379" y="610" type="line"/>
      <point x="524" y="673" type="line"/>
      <point x="530" y="717" type="line"/>
      <point x="360" y="644" type="line"/>
      <point x="314" y="730" type="line"/>
      <point x="264" y="730" type="line"/>
      <point x="323" y="628" type="line"/>
      <point x="161" y="557" type="line"/>
      <point x="155" y="513" type="line"/>
      <point x="342" y="594" type="line"/>
      <point x="398" y="491" type="line" smooth="yes"/>
      <point x="437" y="419"/>
      <point x="453" y="366"/>
      <point x="456" y="347" type="curve"/>
      <point x="453" y="347" type="line"/>
      <point x="437" y="385"/>
      <point x="388" y="436"/>
      <point x="315" y="436" type="curve" smooth="yes"/>
      <point x="186" y="436"/>
      <point x="91" y="350"/>
      <point x="70" y="215" type="curve" smooth="yes"/>
      <point x="49" y="79"/>
      <point x="121" y="-10"/>
    </contour>
    <contour>
      <point x="262" y="40" type="curve" smooth="yes"/>
      <point x="161" y="40"/>
      <point x="108" y="108"/>
      <point x="125" y="215" type="curve" smooth="yes"/>
      <point x="142" y="322"/>
      <point x="217" y="390"/>
      <point x="318" y="390" type="curve" smooth="yes"/>
      <point x="413" y="390"/>
      <point x="471" y="318"/>
      <point x="455" y="216" type="curve" smooth="yes"/>
      <point x="438" y="109"/>
      <point x="362" y="40"/>
    </contour>
  </outline>
</glyph>
<glyph name="dcaron" format="2">
  <advance width="600"/>
  <unicode hex="010F"/>
  <outline>
    <contour>
      <point x="553" y="550" type="line"/>
      <point x="598" y="550" type="line"/>
      <point x="642" y="730" type="line"/>
      <point x="592" y="730" type="line"/>
    </contour>
    <contour>
      <point x="216" y="-10" type="curve" smooth="yes"/>
      <point x="310" y="-10"/>
      <point x="379" y="48"/>
      <point x="393" y="140" type="curve"/>
      <point x="345" y="75" type="line"/>
      <point x="373" y="75" type="line"/>
      <point x="361" y="0" type="line"/>
      <point x="411" y="0" type="line"/>
      <point x="527" y="730" type="line"/>
      <point x="477" y="730" type="line"/>
      <point x="453" y="580" type="line"/>
      <point x="436" y="475" type="line"/>
      <point x="418" y="475" type="line"/>
      <point x="436" y="410" type="line"/>
      <point x="451" y="502"/>
      <point x="401" y="560"/>
      <point x="307" y="560" type="curve" smooth="yes"/>
      <point x="202" y="560"/>
      <point x="122" y="483"/>
      <point x="103" y="360" type="curve" smooth="yes"/>
      <point x="76" y="189" type="line" smooth="yes"/>
      <point x="57" y="67"/>
      <point x="111" y="-10"/>
    </contour>
    <contour>
      <point x="233" y="33" type="curve" smooth="yes"/>
      <point x="152" y="33"/>
      <point x="111" y="93"/>
      <point x="126" y="189" type="curve" smooth="yes"/>
      <point x="153" y="360" type="line" smooth="yes"/>
      <point x="168" y="456"/>
      <point x="229" y="517"/>
      <point x="310" y="517" type="curve" smooth="yes"/>
      <point x="392" y="517"/>
      <point x="433" y="456"/>
      <point x="418" y="360" type="curve" smooth="yes"/>
      <point x="391" y="189" type="line" smooth="yes"/>
      <point x="376" y="93"/>
      <point x="315" y="33"/>
    </contour>
  </outline>
</glyph>
<glyph name="scedilla" format="2">
  <advance width="600"/>
  <unicode hex="015F"/>
  <anchor x="261" y="0" name="bottom"/>
  <anchor x="347" y="550" name="top"/>
  <outline>
    <contour>
      <point x="185" y="-195" type="line"/>
      <point x="265" y="-195" type="line" smooth="yes"/>
      <point x="325" y="-195"/>
      <point x="370" y="-161"/>
      <point x="377" y="-118" type="curve" smooth="yes"/>
      <point x="386" y="-61"/>
      <point x="327" y="-37"/>
      <point x="280" y="-34" type="curve"/>
      <point x="313" y="26" type="line"/>
      <point x="271" y="26" type="line"/>
      <point x="222" y="-64" type="line"/>
      <point x="293" y="-64"/>
      <point x="336" y="-86"/>
      <point x="331" y="-118" type="curve" smooth="yes"/>
      <point x="328" y="-140"/>
      <point x="303" y="-160"/>
      <point x="271" y="-160" type="curve" smooth="yes"/>
      <point x="191" y="-160" type="line"/>
    </contour>
    <component base="s"/>
  </outline>
</glyph>
<glyph name="lambdastroke" format="2">
  <advance width="600"/>
  <unicode hex="019B"/>
  <outline>
    <contour>
      <point x="124" y="502" type="line"/>
      <point x="534" y="692" type="line"/>
      <point x="542" y="740" type="line"/>
      <point x="132" y="550" type="line"/>
    </contour>
    <component base="lambda"/>
  </outline>
</glyph>
<glyph name="Uhorn" format="2">
  <advance width="600"/>
  <unicode hex="01AF"/>
  <anchor x="360" y="730" name="top"/>
  <anchor x="256" y="0" name="bottom"/>
  <anchor x="464" y="730" name="horn"/>
  <anchor x="305" y="0" name="ogonek"/>
  <anchor x="652" y="730" name="topright"/>
  <outline>
    <contour>
      <point x="510" y="695" type="line"/>
      <point x="595" y="695" type="line" smooth="yes"/>
      <point x="646" y="695"/>
      <point x="685" y="729"/>
      <point x="693" y="780" type="curve" smooth="yes"/>
      <point x="703" y="840" type="line"/>
      <point x="663" y="840" type="line"/>
      <point x="653" y="780" type="line" smooth="yes"/>
      <point x="648" y="750"/>
      <point x="628" y="730"/>
      <point x="601" y="730" type="curve" smooth="yes"/>
      <point x="516" y="730" type="line"/>
    </contour>
    <component base="U"/>
  </outline>
</glyph>
<glyph name="apostrophemod" format="2">
  <advance width="600"/>
  <unicode hex="02BC"/>
  <outline>
    <contour>
      <point x="215" y="465" type="line"/>
      <point x="255" y="465" type="line"/>
      <point x="429" y="776" type="line"/>
      <point x="339" y="776" type="line"/>
    </contour>
  </outline>
</glyph>
<glyph name="lowtildemod" format="2">
  <advance width="600"/>
  <unicode hex="02F7"/>
  <anchor x="300" y="-295" name="_top"/>
  <outline>
    <contour>
      <point x="375" y="-210" type="curve" smooth="yes"/>
      <point x="428" y="-210"/>
      <point x="460" y="-176"/>
      <point x="460" y="-120" type="curve" smooth="yes"/>
      <point x="460" y="-85" type="line"/>
      <point x="420" y="-85" type="line"/>
      <point x="420" y="-120" type="line" smooth="yes"/>
      <point x="420" y="-151"/>
      <point x="403" y="-171"/>
      <point x="375" y="-171" type="curve" smooth="yes"/>
      <point x="326" y="-171"/>
      <point x="305" y="-80"/>
      <point x="230" y="-80" type="curve" smooth="yes"/>
      <point x="174" y="-80"/>
      <point x="140" y="-114"/>
      <point x="140" y="-170" type="curve" smooth="yes"/>
      <point x="140" y="-205" type="line"/>
      <point x="180" y="-205" type="line"/>
      <point x="180" y="-170" type="line" smooth="yes"/>
      <point x="180" y="-139"/>
      <point x="199" y="-119"/>
      <point x="230" y="-119" type="curve" smooth="yes"/>
      <point x="279" y="-119"/>
      <point x="300" y="-210"/>
    </contour>
  </outline>
</glyph>
<glyph name="acutecomb" format="2">
  <unicode hex="0301"/>
  <anchor x="-278" y="550" name="_top"/>
  <anchor x="-184" y="785" name="top"/>
  <outline>
    <contour>
      <point x="-291" y="645" type="line"/>
      <point x="-234" y="645" type="line"/>
      <point x="-100" y="785" type="line"/>
      <point x="-163" y="785" type="line"/>
    </contour>
  </outline>
</glyph>
<glyph name="circumflexcomb" format="2">
  <unicode hex="0302"/>
  <anchor x="-256" y="550" name="_top"/>
  <anchor x="-219" y="785" name="top"/>
  <outline>
    <contour>
      <point x="-391" y="645" type="line"/>
      <point x="-338" y="645" type="line"/>
      <point x="-222" y="754" type="line"/>
      <point x="-138" y="645" type="line"/>
      <point x="-91" y="645" type="line"/>
      <point x="-189" y="785" type="line"/>
      <point x="-249" y="785" type="line"/>
    </contour>
  </outline>
</glyph>
<glyph name="dotaccentcomb" format="2">
  <unicode hex="0307"/>
  <anchor x="-256" y="550" name="_top"/>
  <anchor x="-222" y="765" name="top"/>
  <outline>
    <contour>
      <point x="-240" y="655" type="curve" smooth="yes"/>
      <point x="-205" y="655"/>
      <point x="-178" y="677"/>
      <point x="-173" y="710" type="curve" smooth="yes"/>
      <point x="-168" y="743"/>
      <point x="-187" y="765"/>
      <point x="-222" y="765" type="curve" smooth="yes"/>
      <point x="-257" y="765"/>
      <point x="-284" y="743"/>
      <point x="-289" y="710" type="curve" smooth="yes"/>
      <point x="-294" y="677"/>
      <point x="-275" y="655"/>
    </contour>
  </outline>
</glyph>
<glyph name="caroncomb" format="2">
  <unicode hex="030C"/>
  <anchor x="-257" y="550" name="_top"/>
  <anchor x="-219" y="785" name="top"/>
  <outline>
    <contour>
      <point x="-271" y="645" type="line"/>
      <point x="-211" y="645" type="line"/>
      <point x="-69" y="785" type="line"/>
      <point x="-119" y="785" type="line"/>
      <point x="-236" y="676" type="line"/>
      <point x="-320" y="785" type="line"/>
      <point x="-369" y="785" type="line"/>
    </contour>
  </outline>
</glyph>
<glyph name="Psi" format="2">
  <advance width="600"/>
  <unicode hex="03A8"/>
  <outline>
    <contour>
      <point x="231" y="0" type="line"/>
      <point x="281" y="0" type="line"/>
      <point x="308" y="170" type="line"/>
      <point x="437" y="170"/>
      <point x="529" y="248"/>
      <point x="549" y="372" type="curve" smooth="yes"/>
      <point x="606" y="730" type="line"/>
      <point x="556" y="730" type="line"/>
      <point x="499" y="372" type="line" smooth="yes"/>
      <point x="485" y="281"/>
      <point x="408" y="215"/>
      <point x="315" y="215" type="curve"/>
      <point x="397" y="730" type="line"/>
      <point x="347" y="730" type="line"/>
      <point x="265" y="215" type="line"/>
      <point x="172" y="215"/>
      <point x="117" y="281"/>
      <point x="131" y="372" type="curve" smooth="yes"/>
      <point x="188" y="730" type="line"/>
      <point x="138" y="730" type="line"/>
      <point x="81" y="372" type="line" smooth="yes"/>
      <point x="61" y="248"/>
      <point x="129" y="170"/>
      <point x="258" y="170" type="curve"/>
    </contour>
  </outline>
</glyph>
<glyph name="theta" format="2">
  <advance width="600"/>
  <unicode hex="03B8"/>
  <outline>
    <contour>
      <point x="254" y="-10" type="curve" smooth="yes"/>
      <point x="373" y="-10"/>
      <point x="462" y="68"/>
      <point x="481" y="190" type="curve" smooth="yes"/>
      <point x="535" y="530" type="line" smooth="yes"/>
      <point x="554" y="651"/>
      <point x="490" y="730"/>
      <point x="372" y="730" type="curve" smooth="yes"/>
      <point x="254" y="730"/>
      <point x="164" y="651"/>
      <point x="145" y="530" type="curve" smooth="yes"/>
      <point x="91" y="190" type="line" smooth="yes"/>
      <point x="72" y="68"/>
      <point x="136" y="-10"/>
    </contour>
    <contour>
      <point x="261" y="34" type="curve" smooth="yes"/>
      <point x="169" y="34"/>
      <point x="125" y="91"/>
      <point x="141" y="190" type="curve" smooth="yes"/>
      <point x="167" y="352" type="line"/>
      <point x="457" y="352" type="line"/>
      <point x="431" y="190" type="line" smooth="yes"/>
      <point x="415" y="91"/>
      <point x="353" y="34"/>
    </contour>
    <contour>
      <point x="174" y="397" type="line"/>
      <point x="195" y="530" type="line" smooth="yes"/>
      <point x="210" y="628"/>
      <point x="274" y="686"/>
      <point x="365" y="686" type="curve" smooth="yes"/>
      <point x="456" y="686"/>
      <point x="500" y="628"/>
      <point x="485" y="530" type="curve" smooth="yes"/>
      <point x="464" y="397" type="line"/>
    </contour>
  </outline>
</glyph>
<glyph name="lambda" format="2">
  <advance width="600"/>
  <unicode hex="03BB"/>
  <outline>
    <contour>
      <point x="25" y="0" type="line"/>
      <point x="84" y="0" type="line"/>
      <point x="279" y="357" type="line" smooth="yes"/>
      <point x="303" y="401"/>
      <point x="328" y="455"/>
      <point x="341" y="483" type="curve"/>
      <point x="346" y="455"/>
      <point x="357" y="401"/>
      <point x="366" y="357" type="curve" smooth="yes"/>
      <point x="437" y="0" type="line"/>
      <point x="489" y="0" type="line"/>
      <point x="339" y="730" type="line"/>
      <point x="282" y="730" type="line"/>
      <point x="326" y="539" type="line"/>
    </contour>
  </outline>
</glyph>
<glyph name="Ge-cy" format="2">
  <advance width="600"/>
  <unicode hex="0413"/>
  <anchor x="556" y="0" name="bottomright"/>
  <anchor x="392" y="730" name="top"/>
  <outline>
    <contour>
      <point x="96" y="0" type="line"/>
      <point x="146" y="0" type="line"/>
      <point x="254" y="685" type="line"/>
      <point x="609" y="685" type="line"/>
      <point x="617" y="730" type="line"/>
      <point x="212" y="730" type="line"/>
    </contour>
  </outline>
</glyph>
<glyph name="em-cy" format="2">
  <advance width="600"/>
  <unicode hex="043C"/>
  <outline>
    <contour>
      <point x="48" y="0" type="line"/>
      <point x="97" y="0" type="line"/>
      <point x="138" y="260" type="line" smooth="yes"/>
      <point x="154" y="362"/>
      <point x="169" y="471"/>
      <point x="174" y="525" type="curve"/>
      <point x="256" y="165" type="line"/>
      <point x="309" y="165" type="line"/>
      <point x="503" y="525" type="line"/>
      <point x="493" y="471"/>
      <point x="472" y="362"/>
      <point x="456" y="260" type="curve" smooth="yes"/>
      <point x="415" y="0" type="line"/>
      <point x="464" y="0" type="line"/>
      <point x="551" y="550" type="line"/>
      <point x="475" y="550" type="line"/>
      <point x="333" y="290" type="line" smooth="yes"/>
      <point x="316" y="260"/>
      <point x="297" y="221"/>
      <point x="287" y="199" type="curve"/>
      <point x="283" y="221"/>
      <point x="276" y="261"/>
      <point x="269" y="290" type="curve" smooth="yes"/>
      <point x="208" y="550" type="line"/>
      <point x="135" y="550" type="line"/>
    </contour>
  </outline>
</glyph>
<glyph name="quotesinglbase" format="2">
  <advance width="600"/>
  <unicode hex="201A"/>
  <outline>
    <contour>
      <point x="172" y="-160" type="curve"/>
      <point x="227" y="-160" type="line"/>
      <point x="289" y="-62"/>
      <point x="335" y="4"/>
      <point x="335" y="64" type="curve" smooth="yes"/>
      <point x="335" y="122"/>
      <point x="293" y="159"/>
      <point x="221" y="159" type="curve" smooth="yes"/>
      <point x="186" y="159" type="line"/>
      <point x="179" y="114" type="line"/>
      <point x="214" y="114" type="line" smooth="yes"/>
      <point x="261" y="114"/>
      <point x="287" y="90"/>
      <point x="287" y="54" type="curve" smooth="yes"/>
      <point x="287" y="8"/>
      <point x="239" y="-58"/>
    </contour>
  </outline>
</glyph>
<glyph name="bracketleftwithquill" format="2">
  <advance width="600"/>
  <unicode hex="2045"/>
  <outline>
    <contour>
      <point x="158" y="-110" type="line"/>
      <point x="383" y="-110" type="line"/>
      <point x="390" y="-65" type="line"/>
      <point x="215" y="-65" type="line"/>
      <point x="281" y="355" type="line"/>
      <point x="456" y="355" type="line"/>
      <point x="463" y="400" type="line"/>
      <point x="288" y="400" type="line"/>
      <point x="349" y="785" type="line"/>
      <point x="524" y="785" type="line"/>
      <point x="531" y="830" type="line"/>
      <point x="306" y="830" type="line"/>
    </contour>
  </outline>
</glyph>
<glyph name="emptyset" format="2">
  <advance width="600"/>
  <unicode hex="2205"/>
  <outline>
    <contour>
      <point x="314" y="50" type="curve" smooth="yes"/>
      <point x="491" y="50"/>
      <point x="624" y="183"/>
      <point x="624" y="360" type="curve" smooth="yes"/>
      <point x="624" y="537"/>
      <point x="491" y="670"/>
      <point x="314" y="670" type="curve" smooth="yes"/>
      <point x="137" y="670"/>
      <point x="4" y="537"/>
      <point x="4" y="360" type="curve" smooth="yes"/>
      <point x="4" y="183"/>
      <point x="137" y="50"/>
    </contour>
    <contour>
      <point x="314" y="95" type="curve" smooth="yes"/>
      <point x="166" y="95"/>
      <point x="54" y="209"/>
      <point x="54" y="360" type="curve" smooth="yes"/>
      <point x="54" y="511"/>
      <point x="166" y="625"/>
      <point x="314" y="625" type="curve" smooth="yes"/>
      <point x="462" y="625"/>
      <point x="574" y="511"/>
      <point x="574" y="360" type="curve" smooth="yes"/>
      <point x="574" y="209"/>
      <point x="462" y="95"/>
    </contour>
    <contour>
      <point x="34" y="0" type="line"/>
      <point x="88" y="0" type="line"/>
      <point x="594" y="730" type="line"/>
      <point x="540" y="730" type="line"/>
    </contour>
  </outline>
</glyph>
<glyph name="succeeds" format="2">
  <advance width="600"/>
  <unicode hex="227B"/>
  <outline>
    <contour>
      <point x="55" y="55" type="curve"/>
      <point x="100" y="55" type="line"/>
      <point x="142" y="204"/>
      <point x="317" y="300"/>
      <point x="544" y="300" type="curve"/>
      <point x="553" y="360" type="line"/>
      <point x="326" y="360"/>
      <point x="182" y="454"/>
      <point x="186" y="600" type="curve"/>
      <point x="141" y="600" type="line"/>
      <point x="134" y="441"/>
      <point x="257" y="335"/>
      <point x="455" y="331" type="curve"/>
      <point x="456" y="333" type="line"/>
      <point x="256" y="327"/>
      <point x="99" y="218"/>
    </contour>
  </outline>
</glyph>
<glyph name="plus.circled" format="2">
  <advance width="600"/>
  <unicode hex="2295"/>
  <outline>
    <contour>
      <point x="309" y="20" type="curve" smooth="yes"/>
      <point x="486" y="20"/>
      <point x="619" y="153"/>
      <point x="619" y="330" type="curve" smooth="yes"/>
      <point x="619" y="507"/>
      <point x="486" y="640"/>
      <point x="309" y="640" type="curve" smooth="yes"/>
      <point x="132" y="640"/>
      <point x="-1" y="507"/>
      <point x="-1" y="330" type="curve" smooth="yes"/>
      <point x="-1" y="153"/>
      <point x="132" y="20"/>
    </contour>
    <contour>
      <point x="309" y="70" type="curve" smooth="yes"/>
      <point x="161" y="70"/>
      <point x="49" y="182"/>
      <point x="49" y="330" type="curve" smooth="yes"/>
      <point x="49" y="478"/>
      <point x="161" y="590"/>
      <point x="309" y="590" type="curve" smooth="yes"/>
      <point x="457" y="590"/>
      <point x="569" y="478"/>
      <point x="569" y="330" type="curve" smooth="yes"/>
      <point x="569" y="182"/>
      <point x="457" y="70"/>
    </contour>
    <contour>
      <point x="284" y="50" type="line"/>
      <point x="334" y="50" type="line"/>
      <point x="334" y="310" type="line"/>
      <point x="584" y="310" type="line"/>
      <point x="584" y="355" type="line"/>
      <point x="334" y="355" type="line"/>
      <point x="334" y="615" type="line"/>
      <point x="284" y="615" type="line"/>
      <point x="284" y="355" type="line"/>
      <point x="34" y="355" type="line"/>
      <point x="34" y="310" type="line"/>
      <point x="284" y="310" type="line"/>
    </contour>
  </outline>
</glyph>
<glyph name="control" format="2">
  <advance width="600"/>
  <unicode hex="2303"/>
  <outline>
    <contour>
      <point x="90" y="370" type="line"/>
      <point x="154" y="370" type="line"/>
      <point x="298" y="504" type="line"/>
      <point x="444" y="370" type="line"/>
      <point x="510" y="370" type="line"/>
      <point x="323" y="550" type="line"/>
      <point x="277" y="550" type="line"/>
    </contour>
  </outline>
</glyph>
<glyph name="APLrho" format="2">
  <advance width="600"/>
  <unicode hex="2374"/>
  <outline>
    <contour>
      <point x="37" y="-180" type="line"/>
      <point x="87" y="-180" type="line"/>
      <point x="116" y="0" type="line"/>
      <point x="128" y="75" type="line"/>
      <point x="146" y="75" type="line"/>
      <point x="128" y="140" type="line"/>
      <point x="114" y="50"/>
      <point x="170" y="-10"/>
      <point x="267" y="-10" type="curve" smooth="yes"/>
      <point x="376" y="-10"/>
      <point x="462" y="70"/>
      <point x="481" y="190" type="curve" smooth="yes"/>
      <point x="508" y="361" type="line" smooth="yes"/>
      <point x="527" y="482"/>
      <point x="465" y="560"/>
      <point x="348" y="560" type="curve" smooth="yes"/>
      <point x="228" y="560"/>
      <point x="142" y="484"/>
      <point x="123" y="361" type="curve" smooth="yes"/>
    </contour>
    <contour>
      <point x="264" y="33" type="curve" smooth="yes"/>
      <point x="174" y="33"/>
      <point x="130" y="91"/>
      <point x="146" y="190" type="curve" smooth="yes"/>
      <point x="173" y="361" type="line" smooth="yes"/>
      <point x="188" y="458"/>
      <point x="251" y="517"/>
      <point x="341" y="517" type="curve" smooth="yes"/>
      <point x="430" y="517"/>
      <point x="474" y="459"/>
      <point x="458" y="361" type="curve" smooth="yes"/>
      <point x="431" y="190" type="line" smooth="yes"/>
      <point x="415" y="91"/>
      <point x="353" y="33"/>
    </contour>
  </outline>
</glyph>
<glyph name="boxDownDoubleAndRightSingle" format="2">
  <advance width="600"/>
  <unicode hex="2553"/>
  <outline>
    <contour>
      <point x="150" y="-400" type="line"/>
      <point x="250" y="-400" type="line"/>
      <point x="250" y="320" type="line"/>
      <point x="350" y="320" type="line"/>
      <point x="350" y="-400" type="line"/>
      <point x="450" y="-400" type="line"/>
      <point x="450" y="320" type="line"/>
      <point x="620" y="320" type="line"/>
      <point x="620" y="420" type="line"/>
      <point x="150" y="420" type="line"/>
    </contour>
  </outline>
</glyph>
<glyph name="bullseye" format="2">
  <advance width="600"/>
  <unicode hex="25CE"/>
  <outline>
    <contour>
      <point x="314" y="50" type="curve" smooth="yes"/>
      <point x="491" y="50"/>
      <point x="624" y="183"/>
      <point x="624" y="360" type="curve" smooth="yes"/>
      <point x="624" y="537"/>
      <point x="491" y="670"/>
      <point x="314" y="670" type="curve" smooth="yes"/>
      <point x="137" y="670"/>
      <point x="4" y="537"/>
      <point x="4" y="360" type="curve" smooth="yes"/>
      <point x="4" y="183"/>
      <point x="137" y="50"/>
    </contour>
    <contour>
      <point x="314" y="100" type="curve" smooth="yes"/>
      <point x="166" y="100"/>
      <point x="54" y="212"/>
      <point x="54" y="360" type="curve" smooth="yes"/>
      <point x="54" y="508"/>
      <point x="166" y="620"/>
      <point x="314" y="620" type="curve" smooth="yes"/>
      <point x="462" y="620"/>
      <point x="574" y="508"/>
      <point x="574" y="360" type="curve" smooth="yes"/>
      <point x="574" y="212"/>
      <point x="462" y="100"/>
    </contour>
    <contour>
      <point x="314" y="163" type="curve" smooth="yes"/>
      <point x="424" y="163"/>
      <point x="511" y="250"/>
      <point x="511" y="360" type="curve" smooth="yes"/>
      <point x="511" y="473"/>
      <point x="427" y="557"/>
      <point x="314" y="557" type="curve" smooth="yes"/>
      <point x="204" y="557"/>
      <point x="117" y="470"/>
      <point x="117" y="360" type="curve" smooth="yes"/>
      <point x="117" y="250"/>
      <point x="204" y="163"/>
    </contour>
    <contour>
      <point x="314" y="210" type="curve" smooth="yes"/>
      <point x="228" y="210"/>
      <point x="164" y="274"/>
      <point x="164" y="360" type="curve" smooth="yes"/>
      <point x="164" y="446"/>
      <point x="228" y="510"/>
      <point x="314" y="510" type="curve" smooth="yes"/>
      <point x="400" y="510"/>
      <point x="464" y="446"/>
      <point x="464" y="360" type="curve" smooth="yes"/>
      <point x="464" y="274"/>
      <point x="400" y="210"/>
    </contour>
  </outline>
</glyph>
<glyph name="rightTwoHeadedArrowWithTail" format="2">
  <advance width="600"/>
  <unicode hex="2916"/>
  <outline>
    <contour>
      <point x="-80" y="75" type="line"/>
      <point x="26" y="75" type="line"/>
      <point x="151" y="235" type="line"/>
      <point x="287" y="235" type="line" smooth="yes"/>
      <point x="309" y="235"/>
      <point x="340" y="237"/>
      <point x="357" y="239" type="curve"/>
      <point x="357" y="230" type="line"/>
      <point x="345" y="221"/>
      <point x="325" y="202"/>
      <point x="312" y="185" type="curve" smooth="yes"/>
      <point x="225" y="75" type="line"/>
      <point x="331" y="75" type="line"/>
      <point x="456" y="235" type="line"/>
      <point x="480" y="235" type="line" smooth="yes"/>
      <point x="502" y="235"/>
      <point x="533" y="237"/>
      <point x="550" y="239" type="curve"/>
      <point x="550" y="230" type="line"/>
      <point x="538" y="221"/>
      <point x="518" y="202"/>
      <point x="505" y="185" type="curve" smooth="yes"/>
      <point x="418" y="75" type="line"/>
      <point x="524" y="75" type="line"/>
      <point x="680" y="275" type="line"/>
      <point x="524" y="475" type="line"/>
      <point x="418" y="475" type="line"/>
      <point x="505" y="366" type="line" smooth="yes"/>
      <point x="522" y="344"/>
      <point x="541" y="327"/>
      <point x="550" y="319" type="curve"/>
      <point x="550" y="310" type="line"/>
      <point x="533" y="312"/>
      <point x="502" y="315"/>
      <point x="480" y="315" type="curve" smooth="yes"/>
      <point x="456" y="315" type="line"/>
      <point x="331" y="475" type="line"/>
      <point x="225" y="475" type="line"/>
      <point x="312" y="366" type="line" smooth="yes"/>
      <point x="329" y="344"/>
      <point x="348" y="327"/>
      <point x="357" y="319" type="curve"/>
      <point x="357" y="310" type="line"/>
      <point x="340" y="312"/>
      <point x="309" y="315"/>
      <point x="287" y="315" type="curve" smooth="yes"/>
      <point x="151" y="315" type="line"/>
      <point x="26" y="475" type="line"/>
      <point x="-80" y="475" type="line"/>
      <point x="79" y="275" type="line"/>
    </contour>
  </outline>
</glyph>
<glyph name="uniE0A1" format="2">
  <advance width="600"/>
  <unicode hex="E0A1"/>
  <outline>
    <contour>
      <point x="165" y="-190" type="line"/>
      <point x="240" y="-190" type="line"/>
      <point x="240" y="85" type="line" smooth="yes"/>
      <point x="240" y="127"/>
      <point x="231" y="189"/>
      <point x="224" y="225" type="curve"/>
      <point x="234" y="225" type="line"/>
      <point x="242" y="194"/>
      <point x="259" y="140"/>
      <point x="275" y="103" type="curve" smooth="yes"/>
      <point x="403" y="-190" type="line"/>
      <point x="495" y="-190" type="line"/>
      <point x="495" y="300" type="line"/>
      <point x="420" y="300" type="line"/>
      <point x="420" y="25" type="line" smooth="yes"/>
      <point x="420" y="-29"/>
      <point x="436" y="-115"/>
      <point x="435" y="-115" type="curve"/>
      <point x="425" y="-115" type="line"/>
      <point x="418" y="-84"/>
      <point x="403" y="-30"/>
      <point x="387" y="7" type="curve" smooth="yes"/>
      <point x="258" y="300" type="line"/>
      <point x="165" y="300" type="line"/>
    </contour>
    <contour>
      <point x="105" y="400" type="line"/>
      <point x="406" y="400" type="line"/>
      <point x="406" y="475" type="line"/>
      <point x="185" y="475" type="line"/>
      <point x="185" y="890" type="line"/>
      <point x="105" y="890" type="line"/>
    </contour>
  </outline>
</glyph>
<glyph name="E.half" format="2">
  <advance width="400"/>
  <outline>
    <contour>
      <point x="304" y="38" type="line"/>
      <point x="77" y="38" type="line"/>
      <point x="95" y="149" type="line"/>
      <point x="292" y="149" type="line"/>
      <point x="297" y="186" type="line"/>
      <point x="100" y="186" type="line"/>
      <point x="118" y="297" type="line"/>
      <point x="345" y="297" type="line"/>
      <point x="351" y="335" type="line"/>
      <point x="79" y="335" type="line"/>
      <point x="26" y="0" type="line"/>
      <point x="298" y="0" type="line"/>
    </contour>
  </outline>
</glyph>
<glyph name="acutecomb.case" format="2">
  <anchor x="-239" y="730" name="_top"/>
  <anchor x="-158" y="950" name="top"/>
  <outline>
    <contour>
      <point x="-265" y="810" type="line"/>
      <point x="-208" y="810" type="line"/>
      <point x="-74" y="950" type="line"/>
      <point x="-137" y="950" type="line"/>
    </contour>
  </outline>
</glyph>
<glyph name="bar_hyphen_greater.liga" format="2">
  <advance width="600"/>
  <outline>
    <contour>
      <point x="-1098" y="35" type="line"/>
      <point x="-1048" y="35" type="line"/>
      <point x="-1006" y="305" type="line"/>
      <point x="435" y="305" type="line"/>
      <point x="169" y="35" type="line"/>
      <point x="232" y="35" type="line"/>
      <point x="523" y="331" type="line"/>
      <point x="326" y="625" type="line"/>
      <point x="269" y="625" type="line"/>
      <point x="449" y="355" type="line"/>
      <point x="-998" y="355" type="line"/>
      <point x="-955" y="625" type="line"/>
      <point x="-1005" y="625" type="line"/>
    </contour>
  </outline>
</glyph>
<glyph name="brevecomb_acutecomb" format="2">
  <anchor x="-256" y="550" name="_top"/>
  <anchor x="-203" y="890" name="top"/>
  <outline>
    <contour>
      <point x="-242" y="645" type="curve" smooth="yes"/>
      <point x="-152" y="645"/>
      <point x="-84" y="695"/>
      <point x="-72" y="770" type="curve"/>
      <point x="-118" y="770" type="line"/>
      <point x="-126" y="719"/>
      <point x="-174" y="685"/>
      <point x="-237" y="685" type="curve" smooth="yes"/>
      <point x="-299" y="685"/>
      <point x="-336" y="719"/>
      <point x="-328" y="770" type="curve"/>
      <point x="-372" y="770" type="line"/>
      <point x="-384" y="695"/>
      <point x="-331" y="645"/>
    </contour>
    <contour>
      <point x="-268" y="760" type="line"/>
      <point x="-214" y="760" type="line"/>
      <point x="-73" y="890" type="line"/>
      <point x="-137" y="890" type="line"/>
    </contour>
  </outline>
</glyph>
<glyph name="brevecomb_tildecomb.case" format="2">
  <anchor x="-228" y="730" name="_top"/>
  <anchor x="-182" y="1020" name="top"/>
  <outline>
    <contour>
      <point x="-240" y="780" type="curve" smooth="yes"/>
      <point x="-200" y="780" type="line" smooth="yes"/>
      <point x="-122" y="780"/>
      <point x="-63" y="828"/>
      <point x="-51" y="900" type="curve"/>
      <point x="-96" y="900" type="line"/>
      <point x="-104" y="852"/>
      <point x="-143" y="820"/>
      <point x="-194" y="820" type="curve" smooth="yes"/>
      <point x="-234" y="820" type="line" smooth="yes"/>
      <point x="-285" y="820"/>
      <point x="-314" y="852"/>
      <point x="-306" y="900" type="curve"/>
      <point x="-351" y="900" type="line"/>
      <point x="-363" y="828"/>
      <point x="-318" y="780"/>
    </contour>
    <contour>
      <point x="-123" y="920" type="curve" smooth="yes"/>
      <point x="-77" y="920"/>
      <point x="-42" y="949"/>
      <point x="-36" y="995" type="curve" smooth="yes"/>
      <point x="-34" y="1010" type="line"/>
      <point x="-74" y="1010" type="line"/>
      <point x="-76" y="995" type="line" smooth="yes"/>
      <point x="-79" y="972"/>
      <point x="-96" y="958"/>
      <point x="-117" y="958" type="curve" smooth="yes"/>
      <point x="-172" y="958"/>
      <point x="-182" y="1020"/>
      <point x="-252" y="1020" type="curve" smooth="yes"/>
      <point x="-301" y="1020"/>
      <point x="-335" y="991"/>
      <point x="-344" y="945" type="curve" smooth="yes"/>
      <point x="-347" y="930" type="line"/>
      <point x="-307" y="930" type="line"/>
      <point x="-304" y="945" type="line" smooth="yes"/>
      <point x="-299" y="968"/>
      <point x="-283" y="982"/>
      <point x="-258" y="982" type="curve" smooth="yes"/>
      <point x="-203" y="982"/>
      <point x="-193" y="920"/>
    </contour>
  </outline>
</glyph>
<glyph name="circumflexcomb_hookabovecomb" format="2">
  <anchor x="-256" y="550" name="_top"/>
  <anchor x="-157" y="926" name="top"/>
  <outline>
    <contour>
      <point x="-105" y="760" type="line"/>
      <point x="-55" y="760" type="line"/>
      <point x="-8" y="811" type="line" smooth="yes"/>
      <point x="10" y="831"/>
      <point x="22" y="853"/>
      <point x="24" y="869" type="curve" smooth="yes"/>
      <point x="29" y="904"/>
      <point x="3" y="926"/>
      <point x="-42" y="926" type="curve" smooth="yes"/>
      <point x="-116" y="926" type="line"/>
      <point x="-121" y="891" type="line"/>
      <point x="-47" y="891" type="line" smooth="yes"/>
      <point x="-27" y="891"/>
      <point x="-17" y="881"/>
      <point x="-20" y="865" type="curve" smooth="yes"/>
      <point x="-21" y="855"/>
      <point x="-29" y="841"/>
      <point x="-41" y="829" type="curve" smooth="yes"/>
    </contour>
    <contour>
      <point x="-392" y="645" type="line"/>
      <point x="-339" y="645" type="line"/>
      <point x="-223" y="754" type="line"/>
      <point x="-139" y="645" type="line"/>
      <point x="-92" y="645" type="line"/>
      <point x="-190" y="785" type="line"/>
      <point x="-250" y="785" type="line"/>
    </contour>
  </outline>
</glyph>
<glyph name="colon.case" format="2">
  <advance width="600"/>
  <outline>
    <contour>
      <point x="335" y="496" type="curve" smooth="yes"/>
      <point x="379" y="496"/>
      <point x="412" y="525"/>
      <point x="419" y="568" type="curve" smooth="yes"/>
      <point x="426" y="611"/>
      <point x="402" y="640"/>
      <point x="358" y="640" type="curve" smooth="yes"/>
      <point x="314" y="640"/>
      <point x="280" y="611"/>
      <point x="273" y="568" type="curve" smooth="yes"/>
      <point x="266" y="525"/>
      <point x="291" y="496"/>
    </contour>
    <contour>
      <point x="267" y="70" type="curve" smooth="yes"/>
      <point x="311" y="70"/>
      <point x="345" y="99"/>
      <point x="352" y="142" type="curve" smooth="yes"/>
      <point x="359" y="185"/>
      <point x="334" y="214"/>
      <point x="290" y="214" type="curve" smooth="yes"/>
      <point x="246" y="214"/>
      <point x="213" y="185"/>
      <point x="206" y="142" type="curve" smooth="yes"/>
      <point x="199" y="99"/>
      <point x="223" y="70"/>
    </contour>
  </outline>
</glyph>
<glyph name="commaaccentcomb.case" format="2">
  <anchor x="-344" y="0" name="_bottom"/>
  <anchor x="-389" y="-240" name="bottom"/>
  <outline>
    <contour>
      <point x="-467" y="-240" type="line"/>
      <point x="-417" y="-240" type="line"/>
      <point x="-289" y="-95" type="line"/>
      <point x="-354" y="-95" type="line"/>
    </contour>
  </outline>
</glyph>
<glyph name="greater_greater_equal.liga" format="2">
  <advance width="600"/>
  <outline>
    <contour>
      <point x="-850" y="35" type="line"/>
      <point x="-788" y="35" type="line"/>
      <point x="-631" y="195" type="line"/>
      <point x="493" y="195" type="line"/>
      <point x="500" y="240" type="line"/>
      <point x="-586" y="240" type="line"/>
      <point x="-497" y="331" type="line"/>
      <point x="-557" y="421" type="line"/>
      <point x="529" y="421" type="line"/>
      <point x="536" y="466" type="line"/>
      <point x="-587" y="466" type="line"/>
      <point x="-694" y="625" type="line"/>
      <point x="-751" y="625" type="line"/>
      <point x="-560" y="333" type="line"/>
    </contour>
    <contour>
      <point x="-1130" y="35" type="line"/>
      <point x="-1068" y="35" type="line"/>
      <point x="-777" y="331" type="line"/>
      <point x="-974" y="625" type="line"/>
      <point x="-1031" y="625" type="line"/>
      <point x="-840" y="333" type="line"/>
    </contour>
  </outline>
</glyph>
<glyph name="less_equal_equal_greater.liga" format="2">
  <advance width="600"/>
  <outline>
    <contour>
      <point x="-1499" y="35" type="line"/>
      <point x="-1443" y="35" type="line"/>
      <point x="-1551" y="195" type="line"/>
      <point x="328" y="195" type="line"/>
      <point x="170" y="35" type="line"/>
      <point x="232" y="35" type="line"/>
      <point x="523" y="331" type="line"/>
      <point x="326" y="625" type="line"/>
      <point x="269" y="625" type="line"/>
      <point x="375" y="466" type="line"/>
      <point x="-1501" y="466" type="line"/>
      <point x="-1343" y="625" type="line"/>
      <point x="-1405" y="625" type="line"/>
      <point x="-1697" y="330" type="line"/>
    </contour>
    <contour>
      <point x="-1581" y="240" type="line"/>
      <point x="-1638" y="327" type="line"/>
      <point x="-1546" y="421" type="line"/>
      <point x="405" y="421" type="line"/>
      <point x="462" y="333" type="line"/>
      <point x="373" y="240" type="line"/>
    </contour>
  </outline>
</glyph>
<glyph name="less_hyphen.liga" format="2">
  <advance width="600"/>
  <outline>
    <contour>
      <point x="-309" y="35" type="line"/>
      <point x="-253" y="35" type="line"/>
      <point x="-437" y="307" type="line"/>
      <point x="510" y="307" type="line"/>
      <point x="517" y="352" type="line"/>
      <point x="-424" y="352" type="line"/>
      <point x="-153" y="625" type="line"/>
      <point x="-215" y="625" type="line"/>
      <point x="-507" y="330" type="line"/>
    </contour>
  </outline>
</glyph>
<glyph name="numbersign_underscore.liga" format="2">
  <advance width="600"/>
  <outline>
    <contour>
      <point x="-345" y="-70" type="line"/>
      <point x="475" y="-70" type="line"/>
      <point x="482" y="-25" type="line"/>
      <point x="-285" y="-25" type="line"/>
      <point x="-196" y="230" type="line"/>
      <point x="-78" y="230" type="line"/>
      <point x="-71" y="270" type="line"/>
      <point x="-181" y="270" type="line"/>
      <point x="-115" y="460" type="line"/>
      <point x="-6" y="460" type="line"/>
      <point x="0" y="500" type="line"/>
      <point x="-101" y="500" type="line"/>
      <point x="-20" y="730" type="line"/>
      <point x="-65" y="730" type="line"/>
      <point x="-146" y="500" type="line"/>
      <point x="-332" y="500" type="line"/>
      <point x="-251" y="730" type="line"/>
      <point x="-296" y="730" type="line"/>
      <point x="-377" y="500" type="line"/>
      <point x="-495" y="500" type="line"/>
      <point x="-501" y="460" type="line"/>
      <point x="-391" y="460" type="line"/>
      <point x="-457" y="270" type="line"/>
      <point x="-566" y="270" type="line"/>
      <point x="-573" y="230" type="line"/>
      <point x="-472" y="230" type="line"/>
      <point x="-552" y="0" type="line"/>
      <point x="-507" y="0" type="line"/>
      <point x="-427" y="230" type="line"/>
      <point x="-241" y="230" type="line"/>
    </contour>
    <contour>
      <point x="-412" y="270" type="line"/>
      <point x="-346" y="460" type="line"/>
      <point x="-160" y="460" type="line"/>
      <point x="-226" y="270" type="line"/>
    </contour>
  </outline>
</glyph>
<glyph name="tonos.case" format="2">
  <advance width="600"/>
  <outline>
    <contour>
      <point x="291" y="568" type="line"/>
      <point x="339" y="568" type="line"/>
      <point x="426" y="728" type="line"/>
      <point x="372" y="728" type="line"/>
    </contour>
  </outline>
</glyph>
